<svg xmlns="http://www.w3.org/2000/svg"  viewBox="0 0 48 48" width="48px" height="48px" baseProfile="basic"><path fill="#127272" d="M11.7,5.885C9.21,6.091,7.634,7.967,6.696,9.738s-1.04,3.206-1.075,5.21	C5.492,22.25,5.141,28.246,5.93,34.845c0.184,1.544,0.445,3.593,1.544,4.692c2.608,2.608,6.475,2.71,11.318,2.71	c5.076,0,9.573,0.023,14.634-0.372c1.403-0.109,2.822-0.237,4.153-0.695c1.331-0.459,2.584-1.288,3.28-2.511	c0.648-1.139,0.758-2.496,0.833-3.804c0.434-7.539,0.205-15.098-0.023-22.646c-0.052-1.726-0.168-3.615-1.341-4.883	c-1.343-1.451-3.562-1.559-5.539-1.566C27.276,5.742,17.276,5.424,11.7,5.885z"/><path fill="#2b8c5e" d="M36.527,30.128c1.864-0.614,3.758-1.714,5.398-2.793c0.044-5.038-0.104-10.08-0.256-15.116	c-0.052-1.726-0.168-3.615-1.341-4.883c-1.343-1.451-3.562-1.559-5.539-1.566C27.276,5.742,17.276,5.424,11.7,5.885	C9.21,6.091,7.634,7.967,6.696,9.737c-0.938,1.771-1.04,3.206-1.076,5.21c-0.076,4.309-0.224,8.161-0.175,11.952	c0.698,0.382,1.578,0.903,2.271,1.274c0.375,0.201,0.766,0.37,1.156,0.539c0.997,0.432,1.995,0.863,2.992,1.295	c1.112,0.481,1.917,0.888,3.099,1.154l18.293,0.056C34.578,30.794,35.209,30.562,36.527,30.128z"/><path fill="#38b47b" d="M36.313,19.348c0.693-0.252,1.368-0.552,2.042-0.852c1.18-0.526,2.479-1.177,3.436-2.046	c-0.038-1.411-0.08-2.821-0.122-4.231c-0.052-1.726-0.168-3.615-1.341-4.883c-1.343-1.451-3.562-1.559-5.539-1.566	C27.276,5.742,17.276,5.424,11.7,5.885C9.21,6.091,7.634,7.967,6.696,9.737c-0.938,1.771-1.04,3.206-1.076,5.21	c-0.005,0.287-0.012,0.559-0.018,0.842l0.008,0.009c0.668,0.498,1.457,0.973,2.113,1.374c2.329,1.428,3.934,2.167,7.316,2.981	l17.622,0.068C34.016,20.099,35.035,19.813,36.313,19.348z"/><path fill="#373837" d="M34.454,35.63c-0.387-0.252-0.782-0.491-1.185-0.718c0-5.304-0.035-9.232-0.515-13.912	c-0.202-1.972-0.64-4.115-1.74-5.764c-1.117-1.674-2.991-2.772-4.969-3.14c-1.979-0.369-4.047-0.049-5.918,0.694	c-1.155,0.459-2.265,1.092-3.096,2.016c-1.875,2.083-1.992,5.16-2.009,7.963c-0.022,3.806-0.067,7.613-0.067,11.419	c-2.338,1.058-5.122,4.047-6.145,6.403c2.525,1.577,5.906,1.656,9.981,1.656c5.076,0,9.573,0.023,14.634-0.372	c1.403-0.109,2.822-0.237,4.153-0.695c0.409-0.141,0.802-0.329,1.182-0.541c-0.312-0.813-0.804-1.764-1.345-2.443	C36.598,37.17,35.554,36.345,34.454,35.63z"/><path fill="#febf10" d="M27.651,39.466c0.257-5.515,0.321-9.947,0.191-15.466c-0.048-2.026-0.031-4.964-1.083-6.696	c-0.446-0.734-1.077-1.477-2.009-1.821c-1.857-0.686-3.795-0.466-5.14,0.362c-0.945,0.582-1.734,1.393-2.131,2.392	c-0.397,1-0.566,2.615-0.506,3.682c0.098,1.745,0.093,2.607,0.395,4.331c0.164,0.934,0.579,1.716,1.058,2.546	c0.479,0.83,1.242,1.547,2.195,1.814c0.107,0.03,0.216,0.054,0.326,0.074c0.023,1.248,0.057,2.621,0.08,3.87	c-3.919,0.572-7.718,3.327-9.836,7.047c2.143,0.597,4.69,0.647,7.599,0.647c3.117,0,6.022-0.003,8.967-0.088	C27.698,41.166,27.63,39.911,27.651,39.466z"/><path fill="#010101" d="M42.343,18.441c-0.061-2.579-0.004-5.211-0.264-7.779c-0.198-1.956-0.928-3.819-2.816-4.691	c-1.823-0.842-3.942-0.695-5.899-0.71c-2.197-0.017-4.395-0.049-6.592-0.076c-4.213-0.052-8.433-0.12-12.644,0.055	c-0.81,0.034-1.62,0.079-2.428,0.145c-4.062,0.411-6.322,4.583-6.537,8.301c-0.144,2.488-0.128,4.996-0.18,7.487	c-0.05,2.377-0.079,4.754-0.014,7.131c0.063,2.328,0.221,4.654,0.513,6.965c0.238,1.885,0.596,3.782,2.119,5.062	c2.969,2.495,7.207,2.41,10.867,2.415c5.105,0.007,10.217,0.018,15.309-0.399c2.237-0.184,4.562-0.521,6.334-2.02	c1.755-1.485,1.984-3.681,2.102-5.836C42.505,29.147,42.469,23.791,42.343,18.441z M6.116,15.193	c0.019-1.029,0.026-2.07,0.239-3.081c0.367-1.741,1.352-3.514,2.746-4.645C9.848,6.86,10.742,6.482,11.7,6.385	c3.56-0.289,7.147-0.263,10.715-0.242c4.093,0.024,8.186,0.107,12.279,0.126c1.807,0.009,4.052,0.003,5.341,1.492	c1.368,1.579,1.123,4.135,1.181,6.075c0.024,0.805,0.045,1.609,0.068,2.414c-1.159,1.004-2.646,1.594-4.039,2.191	c-1.334,0.572-2.723,1.023-4.162,1.217c-0.372-2.339-1.122-4.604-2.964-6.172c-2.817-2.398-6.799-2.499-10.125-1.179	c-1.607,0.638-3.079,1.586-4.018,3.071c-0.79,1.248-1.127,2.709-1.293,4.165c-1.422-0.363-2.825-0.8-4.146-1.449	c-1.535-0.754-2.972-1.701-4.428-2.594C6.112,15.398,6.114,15.296,6.116,15.193z M6.038,18.77c0.017-0.703,0.031-1.406,0.046-2.108	c1.326,0.823,2.648,1.669,4.054,2.348c1.423,0.688,2.925,1.159,4.454,1.543c-0.143,2.054-0.082,4.132-0.098,6.187	c-0.01,1.252-0.012,2.503-0.019,3.755c-1.383-0.414-2.701-1.068-4.019-1.639c-0.783-0.339-1.585-0.652-2.345-1.041	c-0.742-0.38-1.415-0.878-2.161-1.25C5.924,23.967,5.976,21.367,6.038,18.77z M8.756,39.978c-0.716-0.497-1.318-1.135-1.649-1.942	c-0.746-1.822-0.798-4.004-0.946-5.941c-0.111-1.454-0.163-2.909-0.194-4.366c0.592,0.344,1.165,0.718,1.781,1.021	c0.773,0.38,1.578,0.699,2.368,1.041c1.424,0.616,2.849,1.335,4.353,1.745c-0.004,0.784-0.011,1.567-0.012,2.351	c-2.467,1.238-4.578,3.553-5.692,6.051C8.759,39.952,8.761,39.965,8.756,39.978z M27.403,30.508	c-0.012,1.875-0.053,3.749-0.117,5.623c-0.035,1.03-0.078,2.059-0.125,3.089c-0.038,0.829-0.065,1.653,0.148,2.457	c-1.327,0.034-2.654,0.056-3.982,0.064c-2.313,0.013-4.63,0.04-6.942-0.015c-1.481-0.035-2.981-0.125-4.431-0.447	c1.935-3.356,5.383-5.656,9.206-6.243c0.21-0.032,0.371-0.282,0.367-0.482c-0.021-1.105-0.046-2.209-0.069-3.314	c1.72,0.134,3.533-0.277,4.861-1.406c0.44-0.375,0.801-0.81,1.099-1.282C27.414,29.205,27.408,29.859,27.403,30.508z M19.488,22.25	c0.351,0,0.504-0.296,0.472-0.566c0.076,0.066,0.151,0.133,0.223,0.202c0.348,0.334,0.879-0.195,0.53-0.53	c-0.237-0.227-0.501-0.471-0.799-0.615c-0.282-0.136-0.607-0.197-0.918-0.208c-0.57-0.019-1.083,0.215-1.522,0.557	c0.016-1.019,0.145-2.048,0.594-2.946c0.658-1.317,2.027-2.221,3.452-2.486c1.623-0.301,3.496,0.088,4.517,1.46	c0.814,1.094,1.059,2.476,1.179,3.805c0.12,1.328,0.167,2.668,0.191,4.011c0,0.11-0.024,0.248-0.024,0.325	c0.009,1.505-0.542,2.781-1.677,3.788c-1.21,1.073-3.061,1.404-4.624,1.154c-1.593-0.319-2.509-1.821-3.013-3.259	c-0.48-1.369-0.486-2.919-0.559-4.354c-0.013-0.254-0.023-0.514-0.03-0.777c0.13,0.042,0.276,0.009,0.386-0.086	c0.327-0.282,0.704-0.456,1.132-0.442c0.079,0.003,0.168,0.014,0.255,0.029C18.863,21.525,18.938,22.25,19.488,22.25z M37.445,40.698c-2.242,0.777-4.792,0.76-7.139,0.875c-0.659,0.032-1.318,0.047-1.977,0.069c0,0,0-0.001,0-0.001	c-0.309-0.94-0.188-1.937-0.145-2.908c0.043-0.982,0.082-1.964,0.114-2.946c0.064-1.945,0.101-3.891,0.108-5.837	c0.005-1.529-0.022-3.057-0.049-4.585c0.002-0.076,0.01-0.152,0.01-0.228c0-0.023-0.01-0.039-0.013-0.061	c-0.007-0.358-0.004-0.717-0.012-1.075c-0.034-1.544-0.047-3.099-0.334-4.621c-0.271-1.443-0.888-2.86-2.069-3.788	c-1.31-1.029-3.298-1.208-4.88-0.857c-1.509,0.335-2.923,1.325-3.717,2.658c-0.778,1.308-0.933,3.036-0.868,4.527	c0.081,1.857,0.061,3.938,0.782,5.68c0.625,1.509,1.595,2.969,3.2,3.461c0.02,1.031,0.044,2.061,0.064,3.092	c-4.003,0.734-7.625,3.281-9.579,6.862c-0.001,0.002-0.001,0.004-0.002,0.007c-0.446-0.141-0.898-0.324-1.334-0.544	c0.007-0.013,0.018-0.019,0.024-0.034c1.091-2.448,3.138-4.682,5.579-5.824c0.155-0.073,0.248-0.268,0.248-0.432	c0.001-3.998,0.017-7.998,0.072-11.996c0.044-3.228,0.459-6.608,3.539-8.349c2.967-1.677,6.953-2.033,9.849-0.029	c2.936,2.032,3.253,5.866,3.515,9.122c0.321,3.984,0.337,7.982,0.338,11.976c0,0.175,0.095,0.345,0.248,0.432	c2.145,1.223,4.134,2.75,5.125,5.07C37.914,40.521,37.681,40.616,37.445,40.698z M41.409,28.896	c-0.041,2.393-0.041,4.833-0.315,7.214c-0.124,1.075-0.419,2.148-1.144,2.978c-0.277,0.317-0.604,0.586-0.952,0.825	c-1.077-2.362-3.011-3.985-5.229-5.284c0-1.016-0.004-2.032-0.012-3.047c1.329-0.422,2.678-0.834,3.963-1.367	c1.297-0.538,2.512-1.234,3.694-1.986C41.411,28.451,41.413,28.673,41.409,28.896z M37.314,29.307	c-1.16,0.472-2.371,0.85-3.571,1.229c-0.03-2.395-0.098-4.789-0.279-7.179c-0.066-0.879-0.134-1.798-0.244-2.718	c1.515-0.212,2.959-0.667,4.373-1.268c1.279-0.544,2.585-1.101,3.725-1.905c0.082,3.19,0.127,6.38,0.104,9.571	C40.115,27.894,38.766,28.716,37.314,29.307z M19.614,27.821c1.027,0.592,2.446,0.565,3.468-0.026	c0.418-0.242,0.04-0.89-0.379-0.648c-0.787,0.455-1.92,0.482-2.711,0.026C19.573,26.932,19.195,27.58,19.614,27.821z M22.704,21.826	c0.078-0.09,0.158-0.179,0.247-0.259c0.021-0.018,0.042-0.036,0.063-0.054c-0.026,0.022-0.03,0.02,0,0.001	c0.043-0.028,0.085-0.056,0.13-0.08c0.005-0.002,0.026-0.012,0.04-0.019c0.009-0.004,0.02-0.008,0.023-0.009	c0.051-0.016,0.101-0.031,0.153-0.042c0.024-0.005,0.049-0.01,0.074-0.014c0.005-0.001,0.008-0.001,0.016-0.002	c0.066-0.005,0.131-0.011,0.197-0.012c0.094-0.001,0.188,0.01,0.281,0.02c-0.316,0.253-0.223,0.894,0.296,0.894	c0.365,0,0.516-0.32,0.467-0.598c0.073,0.044,0.145,0.085,0.224,0.133c0.173,0.105,0.412,0.038,0.513-0.135	c0.104-0.178,0.039-0.407-0.135-0.513C25,20.96,24.712,20.784,24.38,20.687c-0.243-0.071-0.52-0.109-0.774-0.099	c-0.284,0.011-0.558,0.059-0.814,0.185c-0.244,0.119-0.443,0.32-0.618,0.523c-0.132,0.153-0.151,0.38,0,0.53	C22.309,21.961,22.571,21.98,22.704,21.826z M21.25,26.25c0.549,0,1.429-0.668,1.446-0.93c0.007-0.112-0.705,0.138-1.296,0.175	c-0.274,0.017-0.652-0.006-0.839-0.055c-0.463-0.123-0.815-0.251-0.784-0.151C19.921,25.76,20.821,26.25,21.25,26.25z"/></svg>